# xmcd CD database file
#
# Track frame offsets:
#	150
#	22767
#	42015
#	58505
#	73745
#	90830
#	113332
#	134077
#	156147
#	177095
#	203587
#	219712
#
# Disc length: 3308 seconds
#
# Revision: 3
# Processed by: cddbd v1.4PL0 Copyright (c) Steve Scherf et al.
# Submitted via: CDex 1.40Release
#
DISCID=950cea0c
DTITLE=Xrhstos Danths - To Palio Mou Palto
DYEAR=1999
DGENRE=Other
TTITLE0=Kommatia
TTITLE1=Th Zwh Mou Kaiw
TTITLE2=To Palio Mou Palto
TTITLE3=Liada
TTITLE4=Zw
TTITLE5=Xryso Kloubi
TTITLE6=Kamia Fora
TTITLE7=Kaigetai Tou Kosmou O Ouranos
TTITLE8=Arxhgos
TTITLE9=Egw Kai O Xronos
TTITLE10=Ta Trapouloxarta
TTITLE11=H Alh8eia Menei
EXTD=YEAR: 1999 ID3G: 12
EXTT0=t
EXTT1=4t
EXTT2=
EXTT3=
EXTT4=
EXTT5=
EXTT6=
EXTT7=
EXTT8=
EXTT9=
EXTT10=
EXTT11=
PLAYORDER=
